<svg width="74" height="87" viewBox="0 0 74 87" fill="none" xmlns="http://www.w3.org/2000/svg">
<path d="M72 64.2753V35.3714C72 19.641 72 11.7737 67.1741 6.88891C62.3482 2.00417 54.5865 2 39.0588 2H34.9412C19.4135 2 11.6476 2 6.82588 6.88891C2.00412 11.7778 2 19.641 2 35.3714V75" fill="white"/>
<path d="M72 64.2753V35.3714C72 19.641 72 11.7737 67.1741 6.88891C62.3482 2.00417 54.5865 2 39.0588 2H34.9412C19.4135 2 11.6476 2 6.82588 6.88891C2.00412 11.7778 2 19.641 2 35.3714V75" stroke="black" stroke-width="3" stroke-linecap="round" stroke-linejoin="round"/>
<path fill-rule="evenodd" clip-rule="evenodd" d="M71.7941 64H72V64.0029C71.9316 64.001 71.8629 64 71.7941 64ZM72 83.9971V85H12.2941C9.56395 85 6.9456 83.8938 5.01508 81.9246C3.08456 79.9555 2 77.2848 2 74.5C2 71.7152 3.08456 69.0445 5.01508 67.0754C6.9456 65.1062 9.56395 64 12.2941 64H71.7941C67.0997 64 63.2941 68.4772 63.2941 74C63.2941 79.5228 67.0997 84 71.7941 84C71.8629 84 71.9316 83.999 72 83.9971Z" fill="white"/>
<path d="M72 64H73.5C73.5 63.1716 72.8284 62.5 72 62.5V64ZM72 64.0029L71.9581 65.5023C72.363 65.5136 72.7553 65.3607 73.0457 65.0783C73.3362 64.7958 73.5 64.408 73.5 64.0029H72ZM72 85V86.5C72.8284 86.5 73.5 85.8284 73.5 85H72ZM72 83.9971H73.5C73.5 83.592 73.3362 83.2042 73.0457 82.9217C72.7553 82.6393 72.363 82.4864 71.9581 82.4977L72 83.9971ZM5.01508 81.9246L6.08619 80.8745L6.08619 80.8745L5.01508 81.9246ZM5.01508 67.0754L3.94397 66.0253L3.94397 66.0253L5.01508 67.0754ZM72 62.5H71.7941V65.5H72V62.5ZM73.5 64.0029V64H70.5V64.0029H73.5ZM71.7941 65.5C71.849 65.5 71.9036 65.5008 71.9581 65.5023L72.0419 62.5035C71.9595 62.5012 71.8769 62.5 71.7941 62.5V65.5ZM73.5 85V83.9971H70.5V85H73.5ZM12.2941 86.5H72V83.5H12.2941V86.5ZM3.94397 82.9747C6.1534 85.2283 9.15643 86.5 12.2941 86.5V83.5C9.97147 83.5 7.73779 82.5592 6.08619 80.8745L3.94397 82.9747ZM0.5 74.5C0.5 77.6731 1.73552 80.7221 3.94397 82.9747L6.08619 80.8745C4.43359 79.1889 3.5 76.8964 3.5 74.5H0.5ZM3.94397 66.0253C1.73552 68.2779 0.5 71.3269 0.5 74.5H3.5C3.5 72.1036 4.43359 69.8111 6.08619 68.1255L3.94397 66.0253ZM12.2941 62.5C9.15643 62.5 6.1534 63.7716 3.94397 66.0253L6.08619 68.1255C7.73779 66.4408 9.97146 65.5 12.2941 65.5V62.5ZM71.7941 62.5H12.2941V65.5H71.7941V62.5ZM64.7941 74C64.7941 69.0677 68.1475 65.5 71.7941 65.5V62.5C66.0519 62.5 61.7941 67.8866 61.7941 74H64.7941ZM71.7941 82.5C68.1475 82.5 64.7941 78.9323 64.7941 74H61.7941C61.7941 80.1134 66.0519 85.5 71.7941 85.5V82.5ZM71.9581 82.4977C71.9036 82.4992 71.8489 82.5 71.7941 82.5V85.5C71.8769 85.5 71.9595 85.4988 72.0419 85.4965L71.9581 82.4977Z" fill="black"/>
<path d="M72 85C69.2987 85 66.7081 83.9145 64.798 81.9823C62.8879 80.0501 61.8148 77.4295 61.8148 74.697C61.8148 71.9644 62.8879 69.3438 64.798 67.4116C66.7081 65.4794 69.2987 64.3939 72 64.3939M45.0622 22.5636C46.3981 21.6446 47.9771 21.1548 49.5926 21.1583C54.0944 21.1583 57.7407 24.8798 57.7407 29.4708C57.7407 33.9918 54.0578 37.7709 49.5926 37.7709V41.7273C49.5926 45.6136 49.5926 47.5547 48.3989 48.7622C47.2052 49.9697 45.2863 49.9697 41.4444 49.9697H33.2963C29.4544 49.9697 27.5356 49.9697 26.3419 48.7622C25.1481 47.5547 25.1481 45.6136 25.1481 41.7273V38.2861C20.3896 38.2861 17 34.7006 17 29.4708C17 24.8798 20.6463 21.1583 25.1481 21.1583C26.8267 21.1583 28.383 21.6735 29.6785 22.5595C30.23 20.9389 31.2673 19.5324 32.6459 18.536C34.0246 17.5396 35.676 17.0026 37.3704 17C40.923 17 43.9459 19.3202 45.0622 22.5636ZM45.0622 22.5636C45.361 23.4263 45.5131 24.344 45.5185 25.3166" stroke="black" stroke-width="3" stroke-linecap="round" stroke-linejoin="round"/>
<path d="M32.7959 47.8519V34M41.7755 47.8519V34M3 78H62.1837M3 72.2963H63" stroke="black" stroke-width="3"/>
</svg>
