<svg width="302" height="300" viewBox="0 0 302 300" fill="none" xmlns="http://www.w3.org/2000/svg">
<rect x="2.5" y="2.5" width="295" height="295" rx="53.5" fill="#C8A36B" stroke="#1E2D18" stroke-width="5"/>
<rect x="17.5" y="16.5" width="266" height="266" rx="47.5" fill="#FBF4E1" stroke="#1E2D18" stroke-width="5"/>
<rect x="31.5" y="30.5" width="238" height="238" rx="36.5" fill="#C8A36B" fill-opacity="0.51" stroke="#1E2D18" stroke-width="5"/>
<path d="M157.652 47.2441L157.76 47.2014L157.863 47.1491L165.235 43.3976L165.342 43.3433L165.443 43.279L169.867 40.4654L170.074 40.3339L170.251 40.1648L173.692 36.8823L173.948 36.6377L174.126 36.3315L176.584 32.1112L176.687 31.9345L176.76 31.7435L178.711 26.6236L180.661 21.9723L180.73 21.8098L180.774 21.6394L182.249 16.0123L182.312 15.7719L182.326 15.5239L182.653 9.91308L186.231 13.668L190.343 19.7697L192.664 26.8566L195.056 36.4404L196.011 46.0135L196.496 65.8899L195.069 76.7797L192.722 85.2874L187.984 94.781L182.358 103.279L177.286 107.677L171.028 112.27L164.919 116.305L157.828 119.011L150.117 121.769L142.468 123.594L134.263 124.975L127.359 125.75L123.868 121.309L120.015 115.337L116.699 109.912L114.5 104.459V90.1546L115.893 82.1832L119.609 72.8769L125.261 65.2372L129.464 60.3368L134.392 56.4904L157.652 47.2441Z" fill="#A6CD3E" stroke="#173519" stroke-width="5"/>
<path d="M170.043 66.5119L179.873 52.913L180.365 54.7887V58.0712L179.382 61.8226L176.924 66.5119L174.466 70.7323L172.5 73.5458L169.06 77.2972L156.772 89.0204L152.348 93.7097L152.839 94.1786H161.687L166.602 92.7718L173.483 88.5515L175.45 89.9582V92.3029L173.975 94.1786L172.009 95.5854L163.653 99.3368L156.28 100.744H145.466L140.06 109.184H152.839L163.653 104.964L165.127 106.371V108.715V110.122L157.755 113.405L147.433 115.28H135.144L130.229 126.535L126.789 128.41L123.348 122.314L131.704 105.902V102.15L130.721 100.744L130.229 99.2185V88.5515L131.212 85.269L131.704 83.3933L133.178 81.5176H134.653H136.127L137.111 82.9243V92.3029L137.602 99.3368L138.094 100.275L144.975 92.3029L150.873 86.6758L159.721 78.2351L170.043 66.5119Z" fill="#173519"/>
<circle cx="224" cy="84" r="9" fill="#77A41B" stroke="black" stroke-width="6"/>
<path d="M63.0637 123.124L65.8743 262.346C65.9702 267.097 62.1453 271 57.3935 271C52.6455 271 48.8221 267.103 48.9124 262.356L51.5609 123.13C51.6205 119.997 54.178 117.487 57.3124 117.487C60.4442 117.487 63.0005 119.993 63.0637 123.124Z" fill="#FAF5DD" stroke="#193316" stroke-width="5"/>
<path d="M78.4351 49.3646L79.5667 108.409C79.7598 118.483 71.6461 126.753 61.57 126.753H55.9003C46.0049 126.753 37.9651 118.766 37.9007 108.871L37.5222 50.7637C37.5093 48.7766 37.8357 46.7666 38.4719 44.8758C39.3684 42.2112 40.8892 39.7561 42.8783 37.7854L47.3455 33.3598C48.7051 32.0128 49.7627 30.3921 50.4481 28.6052C53.1345 21.6014 62.916 21.2604 66.0837 28.06L66.8469 29.6982C67.7153 31.5621 68.9763 33.2162 70.5437 34.5472L72.0174 35.7986C74.339 37.7701 76.1225 40.2984 77.2007 43.147L77.2728 43.3374C78.0024 45.2651 78.3956 47.3038 78.4351 49.3646Z" fill="#FEF9EB" stroke="#132B16" stroke-width="5"/>
<rect x="47.8" y="26.7485" width="7.46667" height="72.9158" rx="3.73333" fill="#132B16"/>
<rect x="39.2667" y="33.089" width="38.4" height="61.2916" rx="12" fill="#132B16"/>
<rect x="48.8667" y="26.7485" width="6.4" height="20.0783" fill="#132B16"/>
<rect x="55.2667" y="25.6918" width="7.46667" height="20.0783" fill="#132B16"/>
<rect x="61.6667" y="26.7485" width="7.46667" height="72.9158" rx="3.73333" fill="#132B16"/>
<rect x="55.2667" y="26.7485" width="6.4" height="83.4834" rx="3.2" fill="#FEF9EB"/>
<path d="M40.8667 50.5254V49.2129C40.8667 48.3294 40.9642 47.4486 41.1576 46.5865L41.9333 43.1282L43 39.4295V39.4295C43.2579 37.8965 45.4934 37.8846 45.6667 39.4295V39.4295L46.2 43.1282L46.7333 48.9403L47.7211 93.9534C47.7644 95.9274 46.1761 97.5509 44.2017 97.5509V97.5509C42.2517 97.5509 40.6732 95.9657 40.6815 94.0157L40.8667 50.5254Z" fill="#FEF9EB"/>
<path d="M76.3904 51.5822V50.3301C76.3904 49.4067 76.2838 48.4863 76.0728 47.5873L75.274 44.1849L74.1575 40.4863V40.4863C73.877 38.8933 71.5549 38.8798 71.3663 40.4863V40.4863L70.8081 44.1849L70.2498 49.9971L69.1333 93.8523V94.7053C69.1333 96.6071 70.6016 98.1862 72.4984 98.3243V98.3243C74.6006 98.4773 76.3904 96.8131 76.3904 94.7053L76.3904 51.5822Z" fill="#FEF9EB"/>
<g filter="url(#filter0_d_0_1)">
<mask id="path-17-outside-1_0_1" maskUnits="userSpaceOnUse" x="56" y="125" width="242" height="132" fill="black">
<rect fill="white" x="56" y="125" width="242" height="132"/>
<path d="M114.12 244.4C99.84 244.4 89.34 243.44 82.62 241.52C75.9 239.48 72.54 237.92 72.54 236.84C72.54 234.44 72.96 229.94 73.8 223.34C74.76 216.74 75.24 208.46 75.24 198.5V175.64C75.36 168.68 75.72 162.98 76.32 158.54C76.92 153.98 77.58 150.44 78.3 147.92H72.18L63.18 135.86L64.62 132.98H122.94L133.02 145.94L124.2 153.68H120.42C119.1 151.52 117.54 150.02 115.74 149.18C114.06 148.34 111.6 147.92 108.36 147.92H97.02C96.18 151.16 95.34 155.24 94.5 160.16C93.78 165.08 93.42 170.9 93.42 177.62V180.14H117.54L125.64 193.1L123.3 195.8H93.42V203C93.42 208.16 93.3 212.6 93.06 216.32C92.94 219.92 92.64 223.58 92.16 227.3C94.08 227.66 96.42 227.96 99.18 228.2C101.94 228.32 105 228.38 108.36 228.38C111.6 228.38 114.72 228.26 117.72 228.02C120.84 227.78 123.72 227.48 126.36 227.12L134.64 241.34L132.48 244.4H114.12ZM175.407 246.56C165.687 246.56 157.827 243.32 151.827 236.84C145.827 230.36 141.387 220.58 138.507 207.5L144.627 205.88C147.387 212.48 150.447 217.4 153.807 220.64C157.287 223.76 161.787 225.32 167.307 225.32C171.867 225.32 175.947 224.3 179.547 222.26C183.147 220.22 185.967 217.46 188.007 213.98C190.167 210.38 191.247 206.42 191.247 202.1C191.247 197.54 189.927 195.26 187.287 195.26C185.247 195.26 182.727 195.62 179.727 196.34C176.847 197.06 173.967 197.78 171.087 198.5C168.207 199.22 165.867 199.58 164.067 199.58C161.667 199.58 159.147 198.44 156.507 196.16C153.867 193.76 151.407 190.64 149.127 186.8C146.847 182.84 144.987 178.64 143.547 174.2C142.227 169.64 141.567 165.2 141.567 160.88C141.567 151.28 144.147 144.02 149.307 139.1C154.587 134.06 161.727 131.54 170.727 131.54C186.087 131.54 196.407 141.44 201.687 161.24L195.567 162.86C193.647 158.78 191.007 155.84 187.647 154.04C184.287 152.24 180.507 151.34 176.307 151.34C169.707 151.34 164.547 153.14 160.827 156.74C157.227 160.34 155.427 165.56 155.427 172.4C155.427 174.68 155.787 176.3 156.507 177.26C157.347 178.22 158.247 178.7 159.207 178.7C161.607 178.7 164.367 178.22 167.487 177.26C170.727 176.3 173.847 175.4 176.847 174.56C179.967 173.6 182.487 173.12 184.407 173.12C186.927 173.12 189.627 174.86 192.507 178.34C195.387 181.7 197.847 186.26 199.887 192.02C202.047 197.78 203.127 204.14 203.127 211.1C203.127 222.26 200.907 230.96 196.467 237.2C192.027 243.44 185.007 246.56 175.407 246.56ZM242.588 248.36C234.668 245.72 228.668 243.26 224.588 240.98C220.508 238.7 218.468 236.84 218.468 235.4C218.468 234.08 218.588 232.7 218.828 231.26C219.068 229.82 219.308 227.72 219.548 224.96C219.788 222.2 219.908 218.24 219.908 213.08V178.88C219.908 170.96 220.208 164.54 220.808 159.62C221.528 154.58 222.248 150.68 222.968 147.92H216.848L207.848 135.86L209.288 132.98H226.208C229.928 132.86 233.648 132.74 237.368 132.62C241.208 132.38 244.208 132.26 246.368 132.26C249.608 132.26 253.148 133.22 256.988 135.14C260.948 137.06 264.668 139.52 268.148 142.52C271.748 145.52 274.688 148.64 276.968 151.88C279.248 155 280.388 157.76 280.388 160.16V176.18C280.388 186.5 275.888 193.88 266.888 198.32C276.368 203.48 281.108 208.88 281.108 214.52C281.108 217.16 281.048 220.4 280.928 224.24C280.808 228.08 280.748 231.38 280.748 234.14C280.748 236.06 281.408 237.68 282.728 239C284.048 240.2 286.268 241.64 289.388 243.32L286.688 248.72C278.648 245.24 272.468 242.24 268.148 239.72C263.828 237.2 261.668 234.44 261.668 231.44C261.668 228.44 261.788 225.26 262.028 221.9C262.268 218.42 262.388 215.54 262.388 213.26C262.388 209.18 260.708 206.06 257.348 203.9C253.988 201.62 248.648 200.48 241.328 200.48H238.088V217.04C238.088 222.2 237.908 226.34 237.548 229.46C237.308 232.46 237.188 234.8 237.188 236.48C237.188 238.52 239.768 240.74 244.928 243.14L242.588 248.36ZM255.368 147.92C253.088 147.92 250.748 148.04 248.348 148.28C246.068 148.4 243.728 148.64 241.328 149C240.488 152.24 239.708 156.26 238.988 161.06C238.388 165.74 238.088 171.26 238.088 177.62V185.36H249.248C253.448 185.36 256.688 183.92 258.968 181.04C261.368 178.04 262.568 173.78 262.568 168.26V158.36C262.568 154.52 262.028 151.82 260.948 150.26C259.868 148.7 258.008 147.92 255.368 147.92Z"/>
</mask>
<path d="M114.12 244.4C99.84 244.4 89.34 243.44 82.62 241.52C75.9 239.48 72.54 237.92 72.54 236.84C72.54 234.44 72.96 229.94 73.8 223.34C74.76 216.74 75.24 208.46 75.24 198.5V175.64C75.36 168.68 75.72 162.98 76.32 158.54C76.92 153.98 77.58 150.44 78.3 147.92H72.18L63.18 135.86L64.62 132.98H122.94L133.02 145.94L124.2 153.68H120.42C119.1 151.52 117.54 150.02 115.74 149.18C114.06 148.34 111.6 147.92 108.36 147.92H97.02C96.18 151.16 95.34 155.24 94.5 160.16C93.78 165.08 93.42 170.9 93.42 177.62V180.14H117.54L125.64 193.1L123.3 195.8H93.42V203C93.42 208.16 93.3 212.6 93.06 216.32C92.94 219.92 92.64 223.58 92.16 227.3C94.08 227.66 96.42 227.96 99.18 228.2C101.94 228.32 105 228.38 108.36 228.38C111.6 228.38 114.72 228.26 117.72 228.02C120.84 227.78 123.72 227.48 126.36 227.12L134.64 241.34L132.48 244.4H114.12ZM175.407 246.56C165.687 246.56 157.827 243.32 151.827 236.84C145.827 230.36 141.387 220.58 138.507 207.5L144.627 205.88C147.387 212.48 150.447 217.4 153.807 220.64C157.287 223.76 161.787 225.32 167.307 225.32C171.867 225.32 175.947 224.3 179.547 222.26C183.147 220.22 185.967 217.46 188.007 213.98C190.167 210.38 191.247 206.42 191.247 202.1C191.247 197.54 189.927 195.26 187.287 195.26C185.247 195.26 182.727 195.62 179.727 196.34C176.847 197.06 173.967 197.78 171.087 198.5C168.207 199.22 165.867 199.58 164.067 199.58C161.667 199.58 159.147 198.44 156.507 196.16C153.867 193.76 151.407 190.64 149.127 186.8C146.847 182.84 144.987 178.64 143.547 174.2C142.227 169.64 141.567 165.2 141.567 160.88C141.567 151.28 144.147 144.02 149.307 139.1C154.587 134.06 161.727 131.54 170.727 131.54C186.087 131.54 196.407 141.44 201.687 161.24L195.567 162.86C193.647 158.78 191.007 155.84 187.647 154.04C184.287 152.24 180.507 151.34 176.307 151.34C169.707 151.34 164.547 153.14 160.827 156.74C157.227 160.34 155.427 165.56 155.427 172.4C155.427 174.68 155.787 176.3 156.507 177.26C157.347 178.22 158.247 178.7 159.207 178.7C161.607 178.7 164.367 178.22 167.487 177.26C170.727 176.3 173.847 175.4 176.847 174.56C179.967 173.6 182.487 173.12 184.407 173.12C186.927 173.12 189.627 174.86 192.507 178.34C195.387 181.7 197.847 186.26 199.887 192.02C202.047 197.78 203.127 204.14 203.127 211.1C203.127 222.26 200.907 230.96 196.467 237.2C192.027 243.44 185.007 246.56 175.407 246.56ZM242.588 248.36C234.668 245.72 228.668 243.26 224.588 240.98C220.508 238.7 218.468 236.84 218.468 235.4C218.468 234.08 218.588 232.7 218.828 231.26C219.068 229.82 219.308 227.72 219.548 224.96C219.788 222.2 219.908 218.24 219.908 213.08V178.88C219.908 170.96 220.208 164.54 220.808 159.62C221.528 154.58 222.248 150.68 222.968 147.92H216.848L207.848 135.86L209.288 132.98H226.208C229.928 132.86 233.648 132.74 237.368 132.62C241.208 132.38 244.208 132.26 246.368 132.26C249.608 132.26 253.148 133.22 256.988 135.14C260.948 137.06 264.668 139.52 268.148 142.52C271.748 145.52 274.688 148.64 276.968 151.88C279.248 155 280.388 157.76 280.388 160.16V176.18C280.388 186.5 275.888 193.88 266.888 198.32C276.368 203.48 281.108 208.88 281.108 214.52C281.108 217.16 281.048 220.4 280.928 224.24C280.808 228.08 280.748 231.38 280.748 234.14C280.748 236.06 281.408 237.68 282.728 239C284.048 240.2 286.268 241.64 289.388 243.32L286.688 248.72C278.648 245.24 272.468 242.24 268.148 239.72C263.828 237.2 261.668 234.44 261.668 231.44C261.668 228.44 261.788 225.26 262.028 221.9C262.268 218.42 262.388 215.54 262.388 213.26C262.388 209.18 260.708 206.06 257.348 203.9C253.988 201.62 248.648 200.48 241.328 200.48H238.088V217.04C238.088 222.2 237.908 226.34 237.548 229.46C237.308 232.46 237.188 234.8 237.188 236.48C237.188 238.52 239.768 240.74 244.928 243.14L242.588 248.36ZM255.368 147.92C253.088 147.92 250.748 148.04 248.348 148.28C246.068 148.4 243.728 148.64 241.328 149C240.488 152.24 239.708 156.26 238.988 161.06C238.388 165.74 238.088 171.26 238.088 177.62V185.36H249.248C253.448 185.36 256.688 183.92 258.968 181.04C261.368 178.04 262.568 173.78 262.568 168.26V158.36C262.568 154.52 262.028 151.82 260.948 150.26C259.868 148.7 258.008 147.92 255.368 147.92Z" fill="#FBF4E1"/>
<path d="M82.62 241.52L80.8771 247.261L80.9243 247.276L80.9717 247.289L82.62 241.52ZM73.8 223.34L67.8625 222.476L67.8548 222.529L67.848 222.582L73.8 223.34ZM75.24 175.64L69.2409 175.537L69.24 175.588V175.64H75.24ZM76.32 158.54L82.266 159.344L82.2674 159.333L82.2687 159.323L76.32 158.54ZM78.3 147.92L84.0691 149.568L86.2544 141.92H78.3V147.92ZM72.18 147.92L67.3714 151.508L69.171 153.92H72.18V147.92ZM63.18 135.86L57.8134 133.177L56.1595 136.485L58.3714 139.449L63.18 135.86ZM64.62 132.98V126.98H60.9118L59.2534 130.297L64.62 132.98ZM122.94 132.98L127.676 129.296L125.875 126.98H122.94V132.98ZM133.02 145.94L136.978 150.45L141.228 146.72L137.756 142.256L133.02 145.94ZM124.2 153.68V159.68H126.459L128.158 158.19L124.2 153.68ZM120.42 153.68L115.3 156.809L117.055 159.68H120.42V153.68ZM115.74 149.18L113.057 154.547L113.129 154.583L113.203 154.617L115.74 149.18ZM97.02 147.92V141.92H92.3772L91.212 146.414L97.02 147.92ZM94.5 160.16L88.5856 159.15L88.5736 159.221L88.5632 159.291L94.5 160.16ZM93.42 180.14H87.42V186.14H93.42V180.14ZM117.54 180.14L122.628 176.96L120.865 174.14H117.54V180.14ZM125.64 193.1L130.174 197.03L133.078 193.679L130.728 189.92L125.64 193.1ZM123.3 195.8V201.8H126.04L127.834 199.73L123.3 195.8ZM93.42 195.8V189.8H87.42V195.8H93.42ZM93.06 216.32L87.0725 215.934L87.0664 216.027L87.0633 216.12L93.06 216.32ZM92.16 227.3L86.2093 226.532L85.4841 232.153L91.0543 233.197L92.16 227.3ZM99.18 228.2L98.6602 234.177L98.7896 234.189L98.9194 234.194L99.18 228.2ZM117.72 228.02L117.26 222.038L117.251 222.038L117.242 222.039L117.72 228.02ZM126.36 227.12L131.545 224.101L129.526 220.633L125.549 221.175L126.36 227.12ZM134.64 241.34L139.542 244.8L141.764 241.651L139.825 238.321L134.64 241.34ZM132.48 244.4V250.4H135.589L137.382 247.86L132.48 244.4ZM114.12 238.4C99.9437 238.4 90.1436 237.43 84.2683 235.751L80.9717 247.289C88.5364 249.45 99.7363 250.4 114.12 250.4V238.4ZM84.3629 235.779C81.0788 234.782 78.8794 233.978 77.5867 233.378C76.9085 233.063 76.7619 232.932 76.8769 233.022C76.9383 233.07 77.2638 233.328 77.6129 233.827C77.9675 234.333 78.54 235.375 78.54 236.84H66.54C66.54 240.125 68.8779 241.998 69.4631 242.458C70.4181 243.208 71.5315 243.797 72.5333 244.262C74.6006 245.222 77.4412 246.218 80.8771 247.261L84.3629 235.779ZM78.54 236.84C78.54 234.876 78.9068 230.739 79.752 224.098L67.848 222.582C67.0132 229.141 66.54 234.004 66.54 236.84H78.54ZM79.7375 224.204C80.754 217.215 81.24 208.623 81.24 198.5H69.24C69.24 208.297 68.766 216.265 67.8625 222.476L79.7375 224.204ZM81.24 198.5V175.64H69.24V198.5H81.24ZM81.2391 175.743C81.357 168.905 81.7095 163.461 82.266 159.344L70.374 157.736C69.7305 162.499 69.363 168.455 69.2409 175.537L81.2391 175.743ZM82.2687 159.323C82.8543 154.872 83.4687 151.67 84.0691 149.568L72.5309 146.272C71.6913 149.21 70.9857 153.088 70.3713 157.757L82.2687 159.323ZM78.3 141.92H72.18V153.92H78.3V141.92ZM76.9886 144.331L67.9886 132.271L58.3714 139.449L67.3714 151.508L76.9886 144.331ZM68.5466 138.543L69.9866 135.663L59.2534 130.297L57.8134 133.177L68.5466 138.543ZM64.62 138.98H122.94V126.98H64.62V138.98ZM118.204 136.664L128.284 149.624L137.756 142.256L127.676 129.296L118.204 136.664ZM129.062 141.43L120.242 149.17L128.158 158.19L136.978 150.45L129.062 141.43ZM124.2 147.68H120.42V159.68H124.2V147.68ZM125.54 150.551C123.772 147.659 121.405 145.202 118.277 143.743L113.203 154.617C113.675 154.838 114.428 155.381 115.3 156.809L125.54 150.551ZM118.423 143.813C115.511 142.357 111.948 141.92 108.36 141.92V153.92C111.252 153.92 112.609 154.323 113.057 154.547L118.423 143.813ZM108.36 141.92H97.02V153.92H108.36V141.92ZM91.212 146.414C90.3145 149.876 89.4417 154.136 88.5856 159.15L100.414 161.17C101.238 156.344 102.046 152.444 102.828 149.426L91.212 146.414ZM88.5632 159.291C87.7894 164.579 87.42 170.703 87.42 177.62H99.42C99.42 171.097 99.7706 165.581 100.437 161.029L88.5632 159.291ZM87.42 177.62V180.14H99.42V177.62H87.42ZM93.42 186.14H117.54V174.14H93.42V186.14ZM112.452 183.32L120.552 196.28L130.728 189.92L122.628 176.96L112.452 183.32ZM121.106 189.17L118.766 191.87L127.834 199.73L130.174 197.03L121.106 189.17ZM123.3 189.8H93.42V201.8H123.3V189.8ZM87.42 195.8V203H99.42V195.8H87.42ZM87.42 203C87.42 208.076 87.3017 212.38 87.0725 215.934L99.0476 216.706C99.2983 212.82 99.42 208.244 99.42 203H87.42ZM87.0633 216.12C86.9499 219.523 86.666 222.993 86.2093 226.532L98.1107 228.068C98.614 224.167 98.9301 220.317 99.0567 216.52L87.0633 216.12ZM91.0543 233.197C93.2295 233.605 95.7777 233.927 98.6602 234.177L99.6998 222.223C97.0623 221.993 94.9305 221.715 93.2657 221.403L91.0543 233.197ZM98.9194 234.194C101.782 234.319 104.931 234.38 108.36 234.38V222.38C105.069 222.38 102.098 222.321 99.4406 222.206L98.9194 234.194ZM108.36 234.38C111.748 234.38 115.028 234.255 118.198 234.001L117.242 222.039C114.412 222.265 111.452 222.38 108.36 222.38V234.38ZM118.18 234.002C121.398 233.755 124.396 233.443 127.171 233.065L125.549 221.175C123.044 221.517 120.282 221.805 117.26 222.038L118.18 234.002ZM121.175 230.139L129.455 244.359L139.825 238.321L131.545 224.101L121.175 230.139ZM129.738 237.88L127.578 240.94L137.382 247.86L139.542 244.8L129.738 237.88ZM132.48 238.4H114.12V250.4H132.48V238.4ZM151.827 236.84L156.23 232.764L156.23 232.764L151.827 236.84ZM138.507 207.5L136.972 201.7L131.41 203.172L132.648 208.79L138.507 207.5ZM144.627 205.88L150.163 203.565L148.146 198.742L143.092 200.08L144.627 205.88ZM153.807 220.64L149.642 224.959L149.721 225.035L149.802 225.107L153.807 220.64ZM188.007 213.98L182.862 210.893L182.846 210.919L182.831 210.946L188.007 213.98ZM179.727 196.34L178.327 190.506L178.299 190.512L178.272 190.519L179.727 196.34ZM171.087 198.5L172.542 204.321L172.542 204.321L171.087 198.5ZM156.507 196.16L152.471 200.6L152.528 200.651L152.585 200.701L156.507 196.16ZM149.127 186.8L143.927 189.794L143.948 189.829L143.968 189.863L149.127 186.8ZM143.547 174.2L137.784 175.868L137.81 175.96L137.84 176.051L143.547 174.2ZM149.307 139.1L153.448 143.442L153.45 143.44L149.307 139.1ZM201.687 161.24L203.223 167.04L209.033 165.502L207.485 159.694L201.687 161.24ZM195.567 162.86L190.138 165.415L192.268 169.94L197.103 168.66L195.567 162.86ZM160.827 156.74L156.655 152.428L156.619 152.463L156.585 152.497L160.827 156.74ZM156.507 177.26L151.707 180.86L151.843 181.041L151.992 181.211L156.507 177.26ZM167.487 177.26L165.783 171.507L165.753 171.516L165.723 171.525L167.487 177.26ZM176.847 174.56L178.465 180.338L178.539 180.317L178.612 180.295L176.847 174.56ZM192.507 178.34L187.885 182.165L187.918 182.205L187.952 182.245L192.507 178.34ZM199.887 192.02L194.231 194.023L194.25 194.075L194.269 194.127L199.887 192.02ZM196.467 237.2L191.578 233.721L196.467 237.2ZM175.407 240.56C167.171 240.56 160.973 237.886 156.23 232.764L147.425 240.916C154.681 248.754 164.203 252.56 175.407 252.56V240.56ZM156.23 232.764C151.236 227.37 147.127 218.745 144.367 206.21L132.648 208.79C135.648 222.415 140.419 233.35 147.425 240.916L156.23 232.764ZM140.043 213.3L146.163 211.68L143.092 200.08L136.972 201.7L140.043 213.3ZM139.092 208.195C142.016 215.188 145.465 220.931 149.642 224.959L157.972 216.321C155.429 213.869 152.758 209.772 150.163 203.565L139.092 208.195ZM149.802 225.107C154.577 229.388 160.592 231.32 167.307 231.32V219.32C162.982 219.32 159.998 218.132 157.812 216.173L149.802 225.107ZM167.307 231.32C172.796 231.32 177.913 230.082 182.505 227.48L176.589 217.04C173.981 218.518 170.939 219.32 167.307 219.32V231.32ZM182.505 227.48C186.999 224.933 190.595 221.43 193.183 217.014L182.831 210.946C181.339 213.49 179.295 215.507 176.589 217.04L182.505 227.48ZM193.152 217.067C195.888 212.507 197.247 207.474 197.247 202.1H185.247C185.247 205.366 184.446 208.253 182.862 210.893L193.152 217.067ZM197.247 202.1C197.247 199.438 196.896 196.463 195.45 193.964C193.714 190.966 190.743 189.26 187.287 189.26V201.26C187.062 201.26 186.575 201.203 186.026 200.887C185.476 200.571 185.18 200.176 185.065 199.976C184.971 199.814 185.032 199.848 185.108 200.244C185.183 200.631 185.247 201.232 185.247 202.1H197.247ZM187.287 189.26C184.601 189.26 181.577 189.726 178.327 190.506L181.127 202.174C183.877 201.514 185.893 201.26 187.287 201.26V189.26ZM178.272 190.519C175.392 191.239 172.512 191.959 169.632 192.679L172.542 204.321C175.422 203.601 178.302 202.881 181.182 202.161L178.272 190.519ZM169.632 192.679C166.963 193.346 165.163 193.58 164.067 193.58V205.58C166.571 205.58 169.451 205.094 172.542 204.321L169.632 192.679ZM164.067 193.58C163.639 193.58 162.463 193.376 160.429 191.619L152.585 200.701C155.831 203.504 159.696 205.58 164.067 205.58V193.58ZM160.543 191.72C158.438 189.807 156.335 187.188 154.286 183.737L143.968 189.863C146.479 194.092 149.296 197.713 152.471 200.6L160.543 191.72ZM154.327 183.806C152.26 180.216 150.568 176.4 149.255 172.349L137.84 176.051C139.406 180.88 141.434 185.464 143.927 189.794L154.327 183.806ZM149.311 172.532C148.132 168.461 147.567 164.583 147.567 160.88H135.567C135.567 165.817 136.322 170.819 137.784 175.868L149.311 172.532ZM147.567 160.88C147.567 152.331 149.843 146.879 153.448 143.442L145.167 134.758C138.451 141.161 135.567 150.229 135.567 160.88H147.567ZM153.45 143.44C157.367 139.701 162.891 137.54 170.727 137.54V125.54C160.563 125.54 151.807 128.419 145.164 134.76L153.45 143.44ZM170.727 137.54C176.985 137.54 181.879 139.501 185.834 143.295C189.93 147.224 193.417 153.512 195.89 162.786L207.485 159.694C204.678 149.168 200.365 140.606 194.141 134.635C187.776 128.529 179.829 125.54 170.727 125.54V137.54ZM200.152 155.44L194.032 157.06L197.103 168.66L203.223 167.04L200.152 155.44ZM200.996 160.305C198.631 155.279 195.174 151.266 190.481 148.751L184.814 159.329C186.84 160.414 188.664 162.281 190.138 165.415L200.996 160.305ZM190.481 148.751C186.163 146.438 181.393 145.34 176.307 145.34V157.34C179.621 157.34 182.412 158.042 184.814 159.329L190.481 148.751ZM176.307 145.34C168.597 145.34 161.778 147.47 156.655 152.428L165 161.052C167.316 158.81 170.817 157.34 176.307 157.34V145.34ZM156.585 152.497C151.515 157.566 149.427 164.532 149.427 172.4H161.427C161.427 166.588 162.939 163.114 165.07 160.983L156.585 152.497ZM149.427 172.4C149.427 174.976 149.768 178.275 151.707 180.86L161.307 173.66C161.615 174.071 161.616 174.3 161.554 174.023C161.497 173.766 161.427 173.252 161.427 172.4H149.427ZM151.992 181.211C153.575 183.021 155.995 184.7 159.207 184.7V172.7C159.774 172.7 160.273 172.852 160.636 173.046C160.964 173.221 161.08 173.374 161.023 173.309L151.992 181.211ZM159.207 184.7C162.377 184.7 165.751 184.072 169.252 182.995L165.723 171.525C162.983 172.368 160.838 172.7 159.207 172.7V184.7ZM169.192 183.013C172.405 182.061 175.496 181.169 178.465 180.338L175.229 168.782C172.198 169.631 169.049 170.539 165.783 171.507L169.192 183.013ZM178.612 180.295C181.5 179.406 183.36 179.12 184.407 179.12V167.12C181.615 167.12 178.434 167.794 175.083 168.825L178.612 180.295ZM184.407 179.12C184.236 179.12 184.427 179.053 185.072 179.468C185.742 179.9 186.691 180.723 187.885 182.165L197.13 174.515C193.961 170.686 189.72 167.12 184.407 167.12V179.12ZM187.952 182.245C190.206 184.875 192.351 188.713 194.231 194.023L205.543 190.017C203.344 183.807 200.568 178.525 197.063 174.435L187.952 182.245ZM194.269 194.127C196.146 199.131 197.127 204.766 197.127 211.1H209.127C209.127 203.514 207.949 196.429 205.505 189.913L194.269 194.127ZM197.127 211.1C197.127 221.558 195.034 228.866 191.578 233.721L201.356 240.679C206.781 233.054 209.127 222.962 209.127 211.1H197.127ZM191.578 233.721C188.549 237.979 183.616 240.56 175.407 240.56V252.56C186.398 252.56 195.505 248.901 201.356 240.679L191.578 233.721ZM242.588 248.36L240.691 254.052L245.842 255.769L248.063 250.814L242.588 248.36ZM224.588 240.98L221.661 246.218L221.661 246.218L224.588 240.98ZM219.548 224.96L213.571 224.44L213.571 224.44L219.548 224.96ZM220.808 159.62L214.868 158.771L214.86 158.832L214.852 158.894L220.808 159.62ZM222.968 147.92L228.774 149.435L230.734 141.92H222.968V147.92ZM216.848 147.92L212.039 151.508L213.839 153.92H216.848V147.92ZM207.848 135.86L202.481 133.177L200.827 136.485L203.039 139.449L207.848 135.86ZM209.288 132.98V126.98H205.58L203.921 130.297L209.288 132.98ZM226.208 132.98V138.98H226.305L226.401 138.977L226.208 132.98ZM237.368 132.62L237.561 138.617L237.652 138.614L237.742 138.608L237.368 132.62ZM256.988 135.14L254.305 140.507L254.337 140.523L254.37 140.539L256.988 135.14ZM268.148 142.52L264.23 147.064L264.268 147.097L264.307 147.129L268.148 142.52ZM276.968 151.88L272.061 155.333L272.092 155.377L272.124 155.42L276.968 151.88ZM266.888 198.32L264.233 192.939L253.857 198.058L264.02 203.59L266.888 198.32ZM280.928 224.24L274.931 224.053L274.931 224.053L280.928 224.24ZM282.728 239L278.485 243.243L278.586 243.344L278.692 243.44L282.728 239ZM289.388 243.32L294.755 246.003L297.358 240.797L292.233 238.037L289.388 243.32ZM286.688 248.72L284.305 254.226L289.515 256.482L292.055 251.403L286.688 248.72ZM268.148 239.72L271.171 234.537L271.171 234.537L268.148 239.72ZM262.028 221.9L268.013 222.327L268.013 222.32L268.014 222.313L262.028 221.9ZM257.348 203.9L253.979 208.865L254.041 208.907L254.103 208.947L257.348 203.9ZM238.088 200.48V194.48H232.088V200.48H238.088ZM237.548 229.46L231.588 228.772L231.575 228.877L231.567 228.982L237.548 229.46ZM244.928 243.14L250.403 245.594L252.823 240.195L247.458 237.7L244.928 243.14ZM248.348 148.28L248.663 154.272L248.804 154.264L248.945 154.25L248.348 148.28ZM241.328 149L240.438 143.066L236.515 143.655L235.52 147.494L241.328 149ZM238.988 161.06L233.054 160.17L233.045 160.233L233.037 160.297L238.988 161.06ZM238.088 185.36H232.088V191.36H238.088V185.36ZM258.968 181.04L254.283 177.292L254.273 177.304L254.264 177.316L258.968 181.04ZM244.485 242.668C236.691 240.07 231.107 237.749 227.515 235.742L221.661 246.218C226.229 248.771 232.645 251.37 240.691 254.052L244.485 242.668ZM227.515 235.742C225.641 234.695 224.567 233.921 224.04 233.441C223.783 233.207 223.822 233.19 223.954 233.404C224.088 233.62 224.468 234.322 224.468 235.4H212.468C212.468 238.822 214.716 241.179 215.955 242.309C217.469 243.689 219.455 244.985 221.661 246.218L227.515 235.742ZM224.468 235.4C224.468 234.443 224.555 233.394 224.746 232.246L212.91 230.274C212.621 232.006 212.468 233.717 212.468 235.4H224.468ZM224.746 232.246C225.026 230.571 225.282 228.284 225.525 225.48L213.571 224.44C213.334 227.156 213.11 229.069 212.91 230.274L224.746 232.246ZM225.525 225.48C225.788 222.458 225.908 218.293 225.908 213.08H213.908C213.908 218.187 213.788 221.942 213.571 224.44L225.525 225.48ZM225.908 213.08V178.88H213.908V213.08H225.908ZM225.908 178.88C225.908 171.078 226.205 164.927 226.764 160.346L214.852 158.894C214.211 164.153 213.908 170.842 213.908 178.88H225.908ZM226.748 160.469C227.456 155.508 228.139 151.869 228.774 149.435L217.162 146.405C216.357 149.491 215.6 153.652 214.868 158.771L226.748 160.469ZM222.968 141.92H216.848V153.92H222.968V141.92ZM221.657 144.331L212.657 132.271L203.039 139.449L212.039 151.508L221.657 144.331ZM213.215 138.543L214.655 135.663L203.921 130.297L202.481 133.177L213.215 138.543ZM209.288 138.98H226.208V126.98H209.288V138.98ZM226.401 138.977C230.121 138.857 233.841 138.737 237.561 138.617L237.175 126.623C233.455 126.743 229.735 126.863 226.015 126.983L226.401 138.977ZM237.742 138.608C241.538 138.371 244.393 138.26 246.368 138.26V126.26C244.023 126.26 240.878 126.389 236.994 126.632L237.742 138.608ZM246.368 138.26C248.424 138.26 251.038 138.873 254.305 140.507L259.671 129.773C255.258 127.567 250.792 126.26 246.368 126.26V138.26ZM254.37 140.539C257.842 142.222 261.127 144.389 264.23 147.064L272.066 137.976C268.209 134.651 264.054 131.898 259.606 129.741L254.37 140.539ZM264.307 147.129C267.574 149.852 270.133 152.593 272.061 155.333L281.875 148.427C279.243 144.686 275.922 141.188 271.989 137.911L264.307 147.129ZM272.124 155.42C274.075 158.09 274.388 159.598 274.388 160.16H286.388C286.388 155.922 284.421 151.91 281.812 148.34L272.124 155.42ZM274.388 160.16V176.18H286.388V160.16H274.388ZM274.388 176.18C274.388 180.453 273.464 183.751 271.89 186.331C270.323 188.902 267.881 191.14 264.233 192.939L269.543 203.701C274.895 201.06 279.203 197.388 282.136 192.579C285.062 187.779 286.388 182.227 286.388 176.18H274.388ZM264.02 203.59C273.299 208.641 275.108 212.517 275.108 214.52H287.108C287.108 205.243 279.436 198.319 269.756 193.05L264.02 203.59ZM275.108 214.52C275.108 217.076 275.05 220.25 274.931 224.053L286.925 224.427C287.046 220.55 287.108 217.244 287.108 214.52H275.108ZM274.931 224.053C274.81 227.933 274.748 231.299 274.748 234.14H286.748C286.748 231.461 286.806 228.227 286.925 224.427L274.931 224.053ZM274.748 234.14C274.748 237.601 276.005 240.762 278.485 243.243L286.971 234.757C286.838 234.624 286.808 234.552 286.8 234.531C286.79 234.507 286.748 234.4 286.748 234.14H274.748ZM278.692 243.44C280.575 245.151 283.328 246.871 286.543 248.603L292.233 238.037C289.208 236.409 287.521 235.249 286.764 234.56L278.692 243.44ZM284.021 240.637L281.321 246.037L292.055 251.403L294.755 246.003L284.021 240.637ZM289.071 243.214C281.114 239.77 275.187 236.88 271.171 234.537L265.125 244.903C269.749 247.6 276.182 250.71 284.305 254.226L289.071 243.214ZM271.171 234.537C269.409 233.51 268.471 232.647 268.013 232.062C267.798 231.788 267.719 231.612 267.691 231.538C267.667 231.475 267.668 231.452 267.668 231.44H255.668C255.668 237.723 260.236 242.051 265.125 244.903L271.171 234.537ZM267.668 231.44C267.668 228.599 267.782 225.562 268.013 222.327L256.043 221.473C255.794 224.958 255.668 228.281 255.668 231.44H267.668ZM268.014 222.313C268.259 218.759 268.388 215.729 268.388 213.26H256.388C256.388 215.351 256.277 218.081 256.042 221.487L268.014 222.313ZM268.388 213.26C268.388 207.191 265.714 202.145 260.593 198.853L254.103 208.947C255.702 209.975 256.388 211.169 256.388 213.26H268.388ZM260.717 198.935C255.843 195.628 249.011 194.48 241.328 194.48V206.48C248.285 206.48 252.133 207.612 253.979 208.865L260.717 198.935ZM241.328 194.48H238.088V206.48H241.328V194.48ZM232.088 200.48V217.04H244.088V200.48H232.088ZM232.088 217.04C232.088 222.096 231.91 225.978 231.588 228.772L243.508 230.148C243.906 226.702 244.088 222.304 244.088 217.04H232.088ZM231.567 228.982C231.323 232.038 231.188 234.563 231.188 236.48H243.188C243.188 235.037 243.293 232.882 243.529 229.938L231.567 228.982ZM231.188 236.48C231.188 240.127 233.452 242.711 235.21 244.223C237.104 245.853 239.605 247.281 242.398 248.58L247.458 237.7C245.091 236.599 243.722 235.717 243.036 235.127C242.214 234.419 243.188 234.873 243.188 236.48H231.188ZM239.453 240.686L237.113 245.906L248.063 250.814L250.403 245.594L239.453 240.686ZM255.368 141.92C252.878 141.92 250.338 142.051 247.751 142.31L248.945 154.25C251.158 154.029 253.298 153.92 255.368 153.92V141.92ZM248.033 142.288C245.549 142.419 243.017 142.68 240.438 143.066L242.218 154.934C244.439 154.6 246.587 154.381 248.663 154.272L248.033 142.288ZM235.52 147.494C234.61 151.005 233.793 155.246 233.054 160.17L244.922 161.95C245.623 157.274 246.366 153.475 247.136 150.506L235.52 147.494ZM233.037 160.297C232.395 165.3 232.088 171.086 232.088 177.62H244.088C244.088 171.434 244.381 166.18 244.939 161.823L233.037 160.297ZM232.088 177.62V185.36H244.088V177.62H232.088ZM238.088 191.36H249.248V179.36H238.088V191.36ZM249.248 191.36C254.984 191.36 260.082 189.3 263.672 184.764L254.264 177.316C253.294 178.54 251.912 179.36 249.248 179.36V191.36ZM263.653 184.788C267.207 180.346 268.568 174.563 268.568 168.26H256.568C256.568 172.997 255.529 175.734 254.283 177.292L263.653 184.788ZM268.568 168.26V158.36H256.568V168.26H268.568ZM268.568 158.36C268.568 154.33 268.073 150.011 265.881 146.845L256.015 153.675C255.928 153.55 256.104 153.752 256.279 154.632C256.448 155.476 256.568 156.693 256.568 158.36H268.568ZM265.881 146.845C263.277 143.083 259.142 141.92 255.368 141.92V153.92C255.736 153.92 256 153.947 256.177 153.978C256.352 154.008 256.424 154.039 256.423 154.038C256.417 154.036 256.349 154.006 256.255 153.931C256.159 153.854 256.076 153.763 256.015 153.675L265.881 146.845Z" fill="#173519" mask="url(#path-17-outside-1_0_1)"/>
</g>
<defs>
<filter id="filter0_d_0_1" x="52.1595" y="125.54" width="249.198" height="138.942" filterUnits="userSpaceOnUse" color-interpolation-filters="sRGB">
<feFlood flood-opacity="0" result="BackgroundImageFix"/>
<feColorMatrix in="SourceAlpha" type="matrix" values="0 0 0 0 0 0 0 0 0 0 0 0 0 0 0 0 0 0 127 0" result="hardAlpha"/>
<feOffset dy="4"/>
<feGaussianBlur stdDeviation="2"/>
<feComposite in2="hardAlpha" operator="out"/>
<feColorMatrix type="matrix" values="0 0 0 0 0 0 0 0 0 0 0 0 0 0 0 0 0 0 0.25 0"/>
<feBlend mode="normal" in2="BackgroundImageFix" result="effect1_dropShadow_0_1"/>
<feBlend mode="normal" in="SourceGraphic" in2="effect1_dropShadow_0_1" result="shape"/>
</filter>
</defs>
</svg>
