<svg width="209" height="183" viewBox="0 0 209 183" fill="none" xmlns="http://www.w3.org/2000/svg">
<rect y="17" width="209" height="166" rx="50" fill="#142625"/>
<path d="M62 0H68.5L73 0.5L77 1L81 1.5L84.5 2.5L88.5 4L92 6L95 7.5L98 9.5L100 11L101.5 12.5L103 14.5L104 16.5V56.5L70 41L66.5 38L64.5 35L63 31.5L61.5 27.5L60 20.5V14L60.5 7L61 3.5L62 0Z" fill="#142625"/>
<path d="M146 0H139.5L135 0.5L131 1L127 1.5L123.5 2.5L119.5 4L116 6L113 7.5L110 9.5L108 11L106.5 12.5L105 14.5L104 16.5V56.5L138 41L141.5 38L143.5 35L145 31.5L146.5 27.5L148 20.5V14L147.5 7L147 3.5L146 0Z" fill="#142625"/>
<path d="M72.5 12.5L73.5 11.5L75 11H79H82L84 11.5L86 12L88.5 13.5L92 15.5L95.5 18L98.7332 21L101.5 24L101 44L94 42.5L89 41L85.5 39L80.5 35.5L76 31L73 25.5L71 20V16.5L71.5 13.5L72 13L72.5 12.5Z" fill="#BDE0A0"/>
<path d="M111.5 18.5L113.5 16.5L116 14.5L118.5 13L122 11.5L125 10.5L127 10H129.5H133H135L136.5 10.5L137 11L137.5 11.5L138 12.5L138.5 14L139 16.5V19L138.5 21L138 23.5L137 26L135.5 29L134 31L131 34L128.5 36L125 38L122 39.5L118 41L114.5 42L112 43L110 44L107.5 45.5L107 32V29L108 25.5L109.5 22L111.5 18.5Z" fill="#BDE0A0"/>
<path d="M160.766 23L171.742 23.5L175.235 24L176.731 24.5L177.729 25L179.226 25.5L180.224 26L182.219 27L183.716 28L185.712 29.5L187.208 30.5L188.206 31.5L189.703 33L190.701 34L191.699 35L192.696 36L193.38 37.5L194.692 38.5L195.69 40L196.688 41.5L197.686 43.5L198.683 46.5L199.182 50L199.681 54V58.5L199.182 61L198.184 64L197.187 66L196.189 67.5L195.191 69L195.874 71.5L194.378 73L190.885 74L183.716 75H168.25L153.282 73.5L147.48 72.5L144.985 71.5L143.988 70.6719L143.489 69.1719V66.1719V63.6719L143.988 60.6719L144.487 59L145.484 57.5L146.981 55.5L148.977 53.5L150.972 52L153.282 50.6719H167.436H170.744H171.927L172.74 50.1719L172.924 49.5V48.5L172.426 47.5L170.744 47H167.935H154.964L152.968 46L148.977 43.5L142.99 41.5L138.315 41L141.807 38L143.803 35L145.3 31.5L146.797 27.5L147.794 23H160.766Z" fill="#FF684E"/>
<path d="M48.0292 54.3223L49.1983 53.1901L51.5365 50.9256L53.2902 49.7934L56.213 48.095L58.5511 46.9628L59.7203 46.3967L62.0585 45.2645L65.5657 44.1322L67.904 43.5661L71.4113 43H76.0877L83.6869 43.5661L88.9478 45.2645L92.4551 47.5289L97.1315 49.7934L102.393 54.3223L102.977 80.0057L99.4771 76.5L96.9771 75L93.9771 73.5702L90.4771 73L87.7787 73.5702L84.9771 74L82.9771 74.5L80.9771 75.5L79.4771 76.5L77.4771 78L76.4771 79L74.9771 81L73.4771 84L72.4771 86L71.4771 88.5L70.9771 90V92V98L71.4771 103.5L72.4771 105.5L74.4771 109.5L76.9771 112.5L80.7641 117L84.856 121.69L92.4551 128.483L102.977 138.107V155.657H80.1796V154.525L81.9332 152.26L83.6869 149.43L85.4406 146.033L86.0251 143.769L86.6096 135.843L86.0251 134.145L85.4406 132.446L84.2714 130.182L83.6869 129.05L82.5178 127.351L80.7641 125.653L77.8413 123.388L76.0877 122.256L72.5804 121.124L69.0731 119.992L42.7683 119.426L37.5074 109.802L35.7537 105.273L35.1691 101.876L34.5846 97.9132L34 91.6859V84.8926L34.5846 79.7975L35.7537 73.5702L37.5074 67.9091L41.0146 62.2479L43.9374 58.2851L48.0292 54.3223Z" fill="#FFAB54"/>
<path d="M106 55.3L107.128 54.17L109.385 51.91L111.077 50.78L113.897 49.085L116.154 47.955L117.282 47.39L119.538 46.26L122.923 45.13L125.179 44.565L128.564 44H133.077L139.5 44.565L145.487 46.26L150 49.0901L145.487 53.04L143.795 55.3L142.667 56.7252L142 58.2523L140.974 60.7973L140.41 64.3604V67.4144L140.974 70.4685L142.667 73.38L146 75L149 75.5L152.5 76.0676L159 76.5L164 77L171.436 78L172 83.5V92.59V97.11L171.436 101.63L170.872 105.02L170.308 107.28L169.179 109.54L168.051 112.365L167.487 113.495L166.359 115.755L163.538 120.275L156.769 128.75L154.513 131.01L152.256 133.27L143.795 141.18L135.333 149.655L131.5 154L128 157H107.128L106.564 139.485L122.923 125.36L127.436 120.84L131.949 115.19L133.641 112.93L135.897 108.975L137.026 106.15L138.154 101.63L138.5 100V96L138.154 92.59L137.59 90.33L136.462 87.505L135.333 84.68L133.077 81.29L130.256 79.03L126.872 76.77L125.179 75.64L122.923 74.51L121.231 73.945L118.41 73.38H113.978L111.621 73.945L109.264 75.3889L107.692 76.9583L106.564 80.0972V74.51V72.25L106 55.3Z" fill="#FF6644"/>
<path d="M105.5 137V87.5L107 84L109 81L111 78.7351L113 77.2351L115 76.7351H116.5H118.944L121 77.2351L124.5 78.7351L127.5 80.4108L129.5 82.5L131 84.5L132 86L133 88L134 90.2351L134.5 92.173L135 96V98.5L134 103L133.256 104.67L130.767 109.081L128.5 113L124.5 118L120.189 122.314L107.122 135.546L105.5 137Z" fill="#FFA952"/>
<path d="M105.5 137V87.3535L102.5 83.5L99 81L97 79.5L94.9778 78.4454L93.6889 77.7227L91.1111 77H89.1778L85.3111 77.7227L82.7333 79.168L80.8 80.6134L79.5111 82.0588L78.2222 84.2268L76.9333 86.3948L75.6444 89.2855L75 92.1763V95.7897V99.4031L76.2889 104.462L78.8667 108.798L81.4444 111.689L84.0222 115.302L89.8222 121.806L103.356 134.814L105.5 137Z" fill="#FFAB53"/>
<path d="M15.787 38.5L21.9907 33.5L28.1944 29.5L33.7778 26.5L38.7407 25L46.1852 23.5L51.7685 23H61.0741L62.3148 27L64.1759 30.5L67.8982 35L71 38L61.0741 40L51.7685 44L46.1852 47L39.9815 52L35.6389 57L32.537 62L29 71L27.5741 79.5L27 92L28.5 107L31.5 114.5L34 118L37.5 121.5H4L4.62037 90.5L4 68L5.86111 55L9.58333 46.5L12.0648 43L15.787 38.5Z" fill="#BDE0A0"/>
<path d="M3 125H63.8162L71.5 127.5L68 137H3V125Z" fill="#FFAB54"/>
<path d="M82.5 134.5C86 143.5 78 157 68.5 156C63.5294 156 57 135.282 57 129.483C57 123.684 65 124.983 70 125.483C74.5 126.983 79.9243 127.877 82.5 134.5Z" fill="#FFAB53"/>
<path d="M54.2531 137.5C54.2531 150.755 59.0833 179 45 179C30.9167 179 5 164 3.25311 137.5C3.25311 124.245 21.1699 130 35.2531 130C49.3364 130 54.2531 124.245 54.2531 137.5Z" fill="#FFAB54"/>
<path d="M40 161.143C40 163.983 37.7614 164 35 164C32.2386 164 30 163.983 30 161.143C30 158.303 32.2386 156 35 156C37.7614 156 40 158.303 40 161.143Z" fill="#142625"/>
<path d="M43 137H74L68 151.5L71.5 165.5L74 179H45L43 178.287V137Z" fill="#FFAB53"/>
<rect x="35" y="156" width="45" height="8" fill="#142625"/>
<rect x="71" y="164" width="60" height="15" fill="#FFAB54"/>
<ellipse cx="130.5" cy="171.5" rx="12.5" ry="7.5" fill="#FFAB53"/>
<path d="M175.5 78.5L190 78L195 77.5L197.5 77L200 76.5L202.5 76L204.5 75L203 143H176L175.5 78.5Z" fill="#82AF7C"/>
<path d="M202.659 144.5C198.659 160.5 183 177.5 156 178.5C143.574 178.5 157.659 154.717 157.659 144.5C157.659 134.283 167.733 126 180.159 126C192.585 126 205.137 134.588 202.659 144.5Z" fill="#82AF7C"/>
<path d="M144 164.5L162 163V176L156 178.5H146H144.5L145.5 178L146.5 177.5L148 176.5L149 175.5L150 174L150.5 172.5V170.5L150 169L149.5 168L148.5 167L146.5 165.5L144 164.5Z" fill="#82AF7C"/>
<path d="M193.5 120.201C193.5 129.59 167.5 170 145.5 165C122 160 148.5 144.967 155 137.5C171 123 177.5 109.5 176 99C184.5 94.5 193.5 110.812 193.5 120.201Z" fill="#82AF7C"/>
<path d="M204.5 59.5C205 70.5 205.18 75.0001 188 75.0001C170.82 75.0001 176 65.6127 176 56.5C176 47.3873 181.044 37 188.5 37C192 28.5 204.5 51.5001 204.5 59.5Z" fill="#FF684E"/>
<mask id="path-25-outside-1_9_217" maskUnits="userSpaceOnUse" x="8" y="65" width="194" height="67" fill="black">
<rect fill="white" x="8" y="65" width="194" height="67"/>
<path fill-rule="evenodd" clip-rule="evenodd" d="M96.8294 89.5478L96.4975 89.4925L95.9226 89.2768C94.2973 87.8909 93.3236 86.7142 93.6633 85.9497C93.6633 85.1919 93.7611 84.4395 93.9361 83.6966L95.0804 82.1709L96.0252 81.2261L97.4422 80.2814L100.513 79.809L107.362 80.2814L116.809 85.005L123.422 76.0302L115.864 71.3065L113.503 69.8894L111.141 68.9447L107.362 68H99.804C90.9342 68 79.9649 75.6134 79.9649 85.005C79.9649 94.0371 86.6153 101.424 95.0141 101.977L95.0804 102.01H96.0252C100.639 102.705 103.942 103.003 106.207 102.987C107.943 105.084 109.107 107.186 109 109.095C108.897 110.924 108.155 112.681 107.088 114.347L106 115L99.804 114.764L96.9699 114.291L86.5779 109.095L79.4925 117.598L80.9096 119.96L83.2714 121.849L87.5226 124.683L96.0252 127.99L98.2862 128.367C98.3538 128.412 98.425 128.456 98.5 128.5C105.585 130.862 125.312 123.298 125.312 109.095C125.312 95.0174 109.007 90.7064 99.3337 89.7366L99.3317 89.7286H99.2537C98.3857 89.643 97.572 89.5842 96.8294 89.5478ZM11 72.0403C11 70.3834 12.3431 69.0403 14 69.0403L51.4573 69.0402C53.1142 69.0402 54.4573 70.3834 54.4573 72.0402V75.5578V78.5057C54.4573 79.0495 54.3095 79.583 54.0298 80.0492L53.9141 80.242C53.3719 81.1456 52.3954 81.6985 51.3416 81.6985L24.1131 81.6985V92.7035H38.0653C41.379 92.7035 44.0653 95.3898 44.0653 98.7035C44.0653 102.017 41.379 104.704 38.0653 104.704H24.1131V120.065C24.1873 120.49 24.2262 120.929 24.2262 121.377C24.2262 122.11 24.1222 122.817 23.9292 123.483C23.5132 125.185 22.4206 126.623 20.9524 127.494C19.9723 128.109 18.8312 128.462 17.6131 128.462C15.5132 128.462 13.6419 127.414 12.4305 125.778C12.1594 125.419 11.9245 125.03 11.7311 124.618C11.2638 123.647 11 122.545 11 121.377C11 120.929 11.0388 120.491 11.1131 120.066V79.5172C11.0394 79.2569 11 78.9823 11 78.6985V72.0403ZM147.04 75.4447C147.04 71.8549 149.95 68.9447 153.54 68.9447H192.5C196.09 68.9447 199 71.8549 199 75.4447V75.6709C199 79.2607 196.09 82.1709 192.5 82.1709H179.161V121.377C179.161 124.768 176.412 127.518 173.02 127.518C169.629 127.518 166.879 124.768 166.879 121.377V82.1709H153.54C149.95 82.1709 147.04 79.2607 147.04 75.6709V75.4447Z"/>
</mask>
<g filter="url(#filter0_i_9_217)">
<path fill-rule="evenodd" clip-rule="evenodd" d="M96.8294 89.5478L96.4975 89.4925L95.9226 89.2768C94.2973 87.8909 93.3236 86.7142 93.6633 85.9497C93.6633 85.1919 93.7611 84.4395 93.9361 83.6966L95.0804 82.1709L96.0252 81.2261L97.4422 80.2814L100.513 79.809L107.362 80.2814L116.809 85.005L123.422 76.0302L115.864 71.3065L113.503 69.8894L111.141 68.9447L107.362 68H99.804C90.9342 68 79.9649 75.6134 79.9649 85.005C79.9649 94.0371 86.6153 101.424 95.0141 101.977L95.0804 102.01H96.0252C100.639 102.705 103.942 103.003 106.207 102.987C107.943 105.084 109.107 107.186 109 109.095C108.897 110.924 108.155 112.681 107.088 114.347L106 115L99.804 114.764L96.9699 114.291L86.5779 109.095L79.4925 117.598L80.9096 119.96L83.2714 121.849L87.5226 124.683L96.0252 127.99L98.2862 128.367C98.3538 128.412 98.425 128.456 98.5 128.5C105.585 130.862 125.312 123.298 125.312 109.095C125.312 95.0174 109.007 90.7064 99.3337 89.7366L99.3317 89.7286H99.2537C98.3857 89.643 97.572 89.5842 96.8294 89.5478ZM11 72.0403C11 70.3834 12.3431 69.0403 14 69.0403L51.4573 69.0402C53.1142 69.0402 54.4573 70.3834 54.4573 72.0402V75.5578V78.5057C54.4573 79.0495 54.3095 79.583 54.0298 80.0492L53.9141 80.242C53.3719 81.1456 52.3954 81.6985 51.3416 81.6985L24.1131 81.6985V92.7035H38.0653C41.379 92.7035 44.0653 95.3898 44.0653 98.7035C44.0653 102.017 41.379 104.704 38.0653 104.704H24.1131V120.065C24.1873 120.49 24.2262 120.929 24.2262 121.377C24.2262 122.11 24.1222 122.817 23.9292 123.483C23.5132 125.185 22.4206 126.623 20.9524 127.494C19.9723 128.109 18.8312 128.462 17.6131 128.462C15.5132 128.462 13.6419 127.414 12.4305 125.778C12.1594 125.419 11.9245 125.03 11.7311 124.618C11.2638 123.647 11 122.545 11 121.377C11 120.929 11.0388 120.491 11.1131 120.066V79.5172C11.0394 79.2569 11 78.9823 11 78.6985V72.0403ZM147.04 75.4447C147.04 71.8549 149.95 68.9447 153.54 68.9447H192.5C196.09 68.9447 199 71.8549 199 75.4447V75.6709C199 79.2607 196.09 82.1709 192.5 82.1709H179.161V121.377C179.161 124.768 176.412 127.518 173.02 127.518C169.629 127.518 166.879 124.768 166.879 121.377V82.1709H153.54C149.95 82.1709 147.04 79.2607 147.04 75.6709V75.4447Z" fill="white"/>
</g>
<path d="M96.4975 89.4925L95.4441 92.3014L95.7169 92.4037L96.0043 92.4516L96.4975 89.4925ZM96.8294 89.5478L96.3362 92.5069L96.5081 92.5356L96.6822 92.5442L96.8294 89.5478ZM95.9226 89.2768L93.976 91.5596L94.3764 91.9011L94.8692 92.0858L95.9226 89.2768ZM93.6633 85.9497L96.4048 87.1682L96.6633 86.5864V85.9497H93.6633ZM93.9361 83.6966L91.5361 81.8966L91.1599 82.3982L91.0161 83.0086L93.9361 83.6966ZM95.0804 82.1709L92.9591 80.0495L92.8083 80.2003L92.6804 80.3709L95.0804 82.1709ZM96.0252 81.2261L94.3611 78.73L94.1139 78.8948L93.9038 79.1048L96.0252 81.2261ZM97.4422 80.2814L96.9861 77.3163L96.3302 77.4172L95.7781 77.7853L97.4422 80.2814ZM100.513 79.809L100.719 76.8162L100.386 76.7932L100.056 76.8439L100.513 79.809ZM107.362 80.2814L108.703 77.5981L108.167 77.3298L107.568 77.2885L107.362 80.2814ZM116.809 85.005L115.467 87.6883L117.726 88.8177L119.224 86.7846L116.809 85.005ZM123.422 76.0302L125.837 77.8097L127.758 75.2026L125.012 73.4862L123.422 76.0302ZM115.864 71.3065L117.454 68.7625L117.431 68.7481L117.408 68.7341L115.864 71.3065ZM113.503 69.8894L115.046 67.317L114.84 67.1933L114.617 67.104L113.503 69.8894ZM111.141 68.9447L112.255 66.1593L112.066 66.0837L111.868 66.0343L111.141 68.9447ZM107.362 68L108.089 65.0896L107.731 65H107.362V68ZM95.0141 101.977L96.3558 99.2936L95.8147 99.0231L95.211 98.9834L95.0141 101.977ZM95.0804 102.01L93.7388 104.693L94.3722 105.01H95.0804V102.01ZM96.0252 102.01L96.4722 99.0435L96.2499 99.01H96.0252V102.01ZM106.207 102.987L108.517 101.074L107.609 99.9771L106.186 99.9872L106.207 102.987ZM109 109.095L106.005 108.927L106.005 108.927L109 109.095ZM107.088 114.347L108.632 116.919L109.236 116.557L109.615 115.964L107.088 114.347ZM106 115L105.886 117.998L106.778 118.032L107.543 117.572L106 115ZM99.804 114.764L99.3108 117.723L99.4991 117.754L99.6898 117.762L99.804 114.764ZM96.9699 114.291L95.6282 116.975L96.0317 117.176L96.4767 117.251L96.9699 114.291ZM86.5779 109.095L87.9196 106.412L85.7944 105.35L84.2733 107.175L86.5779 109.095ZM79.4925 117.598L77.1878 115.677L75.8237 117.314L76.92 119.141L79.4925 117.598ZM80.9096 119.96L78.3371 121.503L78.6145 121.966L79.0355 122.302L80.9096 119.96ZM83.2714 121.849L81.3973 124.192L81.499 124.273L81.6073 124.345L83.2714 121.849ZM87.5226 124.683L85.8585 127.18L86.1306 127.361L86.4353 127.479L87.5226 124.683ZM96.0252 127.99L94.9378 130.786L95.2265 130.898L95.532 130.949L96.0252 127.99ZM98.2862 128.367L99.951 125.871L99.415 125.514L98.7794 125.408L98.2862 128.367ZM98.5 128.5L96.9884 131.091L97.2567 131.248L97.5513 131.346L98.5 128.5ZM99.3337 89.7366L96.4234 90.4647L96.9354 92.5112L99.0344 92.7216L99.3337 89.7366ZM99.3317 89.7286L102.242 89.0005L101.674 86.7286H99.3317V89.7286ZM99.2537 89.7286L98.9589 92.7141L99.1059 92.7286H99.2537V89.7286ZM14 69.0403L14 72.0403L14 69.0403ZM51.4573 69.0402L51.4573 66.0402L51.4573 69.0402ZM54.0298 80.0492L51.4573 78.5057L51.4573 78.5057L54.0298 80.0492ZM53.9141 80.242L56.4866 81.7855L56.4866 81.7855L53.9141 80.242ZM51.3416 81.6985L51.3416 78.6985H51.3416L51.3416 81.6985ZM24.1131 81.6985L24.1131 78.6985L21.1131 78.6985V81.6985H24.1131ZM24.1131 92.7035H21.1131V95.7035H24.1131V92.7035ZM24.1131 104.704V101.704H21.1131V104.704H24.1131ZM24.1131 120.065H21.1131V120.325L21.1578 120.581L24.1131 120.065ZM23.9292 123.483L21.048 122.647L21.0301 122.708L21.0149 122.771L23.9292 123.483ZM20.9524 127.494L19.4216 124.914L19.389 124.933L19.3569 124.953L20.9524 127.494ZM12.4305 125.778L14.8411 123.993L14.8336 123.983L14.8261 123.973L12.4305 125.778ZM11.7311 124.618L14.4468 123.344L14.4408 123.331L14.4346 123.318L11.7311 124.618ZM11.1131 120.066L14.0683 120.582L14.1131 120.326V120.066H11.1131ZM11.1131 79.5172H14.1131V79.1008L13.9997 78.7002L11.1131 79.5172ZM179.161 82.1709V79.1709H176.161V82.1709H179.161ZM166.879 82.1709H169.879V79.1709H166.879V82.1709ZM96.0043 92.4516L96.3362 92.5069L97.3226 86.5886L96.9907 86.5333L96.0043 92.4516ZM94.8692 92.0858L95.4441 92.3014L97.5509 86.6835L96.9759 86.4679L94.8692 92.0858ZM90.9219 84.7313C90.0396 86.7164 91.1439 88.4678 91.6189 89.1296C92.2391 89.9936 93.1119 90.8227 93.976 91.5596L97.8691 86.9941C97.5064 86.6848 97.2061 86.4092 96.9663 86.1673C96.7216 85.9206 96.5735 85.7427 96.4932 85.6309C96.4008 85.5021 96.4664 85.5553 96.5275 85.7677C96.5989 86.0159 96.6777 86.5541 96.4048 87.1682L90.9219 84.7313ZM91.0161 83.0086C90.7945 83.9489 90.6633 84.9331 90.6633 85.9497H96.6633C96.6633 85.4508 96.7276 84.9301 96.8562 84.3846L91.0161 83.0086ZM92.6804 80.3709L91.5361 81.8966L96.3361 85.4966L97.4804 83.9709L92.6804 80.3709ZM93.9038 79.1048L92.9591 80.0495L97.2017 84.2922L98.1465 83.3475L93.9038 79.1048ZM95.7781 77.7853L94.3611 78.73L97.6893 83.7223L99.1063 82.7776L95.7781 77.7853ZM100.056 76.8439L96.9861 77.3163L97.8984 83.2465L100.969 82.7742L100.056 76.8439ZM107.568 77.2885L100.719 76.8162L100.306 82.8019L107.155 83.2743L107.568 77.2885ZM118.151 82.3217L108.703 77.5981L106.02 82.9647L115.467 87.6883L118.151 82.3217ZM121.007 74.2506L114.394 83.2254L119.224 86.7846L125.837 77.8097L121.007 74.2506ZM114.274 73.8505L121.832 78.5741L125.012 73.4862L117.454 68.7625L114.274 73.8505ZM111.959 72.4619L114.321 73.879L117.408 68.7341L115.046 67.317L111.959 72.4619ZM110.027 71.7302L112.388 72.6749L114.617 67.104L112.255 66.1593L110.027 71.7302ZM106.634 70.9104L110.413 71.8552L111.868 66.0343L108.089 65.0896L106.634 70.9104ZM99.804 71H107.362V65H99.804V71ZM82.9649 85.005C82.9649 81.5183 85.0224 78.0481 88.431 75.3243C91.834 72.605 96.1496 71 99.804 71V65C94.5886 65 88.9846 67.2017 84.6855 70.637C80.392 74.0678 76.9649 79.1001 76.9649 85.005H82.9649ZM95.211 98.9834C88.5232 98.5435 82.9649 92.5946 82.9649 85.005H76.9649C76.9649 95.4796 84.7074 104.305 94.8172 104.97L95.211 98.9834ZM96.4221 99.3268L96.3558 99.2936L93.6725 104.66L93.7388 104.693L96.4221 99.3268ZM96.0252 99.01H95.0804V105.01H96.0252V99.01ZM106.186 99.9872C104.156 100.001 101.036 99.7312 96.4722 99.0435L95.5781 104.977C100.242 105.679 103.728 106.005 106.228 105.987L106.186 99.9872ZM111.995 109.264C112.171 106.131 110.317 103.247 108.517 101.074L103.896 104.901C105.569 106.921 106.043 108.241 106.005 108.927L111.995 109.264ZM109.615 115.964C110.839 114.052 111.853 111.792 111.995 109.264L106.005 108.927C105.941 110.057 105.47 111.311 104.562 112.73L109.615 115.964ZM107.543 117.572L108.632 116.919L105.545 111.774L104.457 112.428L107.543 117.572ZM99.6898 117.762L105.886 117.998L106.114 112.002L99.9183 111.766L99.6898 117.762ZM96.4767 117.251L99.3108 117.723L100.297 111.805L97.4631 111.332L96.4767 117.251ZM85.2363 111.779L95.6282 116.975L98.3115 111.608L87.9196 106.412L85.2363 111.779ZM81.7972 119.519L88.8826 111.016L84.2733 107.175L77.1878 115.677L81.7972 119.519ZM83.4821 118.416L82.065 116.055L76.92 119.141L78.3371 121.503L83.4821 118.416ZM85.1455 119.507L82.7837 117.617L79.0355 122.302L81.3973 124.192L85.1455 119.507ZM89.1867 122.187L84.9355 119.353L81.6073 124.345L85.8585 127.18L89.1867 122.187ZM97.1125 125.194L88.61 121.887L86.4353 127.479L94.9378 130.786L97.1125 125.194ZM98.7794 125.408L96.5183 125.031L95.532 130.949L97.793 131.326L98.7794 125.408ZM100.012 125.909C99.9857 125.894 99.9658 125.881 99.951 125.871L96.6214 130.862C96.7419 130.943 96.8644 131.019 96.9884 131.091L100.012 125.909ZM122.312 109.095C122.312 114.666 118.433 119.299 113.059 122.414C110.423 123.941 107.592 124.993 105.061 125.526C102.445 126.076 100.493 126.002 99.4487 125.654L97.5513 131.346C100.05 132.179 103.221 132.045 106.296 131.397C109.457 130.732 112.886 129.449 116.067 127.605C122.327 123.977 128.312 117.727 128.312 109.095H122.312ZM99.0344 92.7216C103.678 93.1871 109.71 94.4449 114.485 97.1181C119.171 99.7413 122.312 103.49 122.312 109.095H128.312C128.312 100.623 123.3 95.177 117.416 91.8827C111.62 88.6385 104.663 87.2559 99.6329 86.7516L99.0344 92.7216ZM96.4214 90.4567L96.4234 90.4647L102.244 89.0085L102.242 89.0005L96.4214 90.4567ZM99.2537 92.7286H99.3317V86.7286H99.2537V92.7286ZM96.6822 92.5442C97.375 92.5782 98.1395 92.6332 98.9589 92.7141L99.5484 86.7432C98.6318 86.6527 97.7689 86.5903 96.9765 86.5514L96.6822 92.5442ZM14 66.0403C10.6863 66.0403 8 68.7266 8 72.0403H14L14 72.0403L14 66.0403ZM51.4573 66.0402L14 66.0403L14 72.0403L51.4573 72.0402L51.4573 66.0402ZM57.4573 72.0402C57.4573 68.7265 54.771 66.0402 51.4573 66.0402L51.4573 72.0402L51.4573 72.0402H57.4573ZM57.4573 75.5578V72.0402H51.4573V75.5578H57.4573ZM57.4573 78.5057V75.5578H51.4573V78.5057H57.4573ZM56.6022 81.5927C57.1617 80.6602 57.4573 79.5932 57.4573 78.5057H51.4573L51.4573 78.5057L56.6022 81.5927ZM56.4866 81.7855L56.6023 81.5927L51.4573 78.5057L51.3416 78.6985L56.4866 81.7855ZM51.3416 84.6985C53.4492 84.6985 55.4022 83.5927 56.4866 81.7855L51.3416 78.6985L51.3416 78.6985V84.6985ZM24.1131 84.6985L51.3416 84.6985L51.3416 78.6985L24.1131 78.6985L24.1131 84.6985ZM27.1131 92.7035V81.6985H21.1131V92.7035H27.1131ZM38.0653 89.7035H24.1131V95.7035H38.0653V89.7035ZM47.0653 98.7035C47.0653 93.7329 43.0359 89.7035 38.0653 89.7035V95.7035C39.7222 95.7035 41.0653 97.0467 41.0653 98.7035H47.0653ZM38.0653 107.704C43.0359 107.704 47.0653 103.674 47.0653 98.7035H41.0653C41.0653 100.36 39.7222 101.704 38.0653 101.704V107.704ZM24.1131 107.704H38.0653V101.704H24.1131V107.704ZM27.1131 120.065V104.704H21.1131V120.065H27.1131ZM27.2262 121.377C27.2262 120.755 27.1723 120.144 27.0683 119.549L21.1578 120.581C21.2024 120.837 21.2262 121.102 21.2262 121.377H27.2262ZM26.8104 124.319C27.0818 123.383 27.2262 122.395 27.2262 121.377H21.2262C21.2262 121.826 21.1626 122.252 21.048 122.647L26.8104 124.319ZM22.4831 130.074C24.6297 128.801 26.232 126.698 26.8435 124.195L21.0149 122.771C20.7944 123.673 20.2114 124.445 19.4216 124.914L22.4831 130.074ZM17.6131 131.462C19.4218 131.462 21.1125 130.936 22.5479 130.035L19.3569 124.953C18.8321 125.283 18.2405 125.462 17.6131 125.462V131.462ZM10.0199 127.564C11.7425 129.889 14.4745 131.462 17.6131 131.462V125.462C16.5519 125.462 15.5413 124.938 14.8411 123.993L10.0199 127.564ZM9.01543 125.893C9.29766 126.494 9.64021 127.061 10.0349 127.584L14.8261 123.973C14.6786 123.777 14.5513 123.566 14.4468 123.344L9.01543 125.893ZM8.00003 121.377C8.00003 122.999 8.36694 124.545 9.02765 125.919L14.4346 123.318C14.1607 122.749 14 122.091 14 121.377H8.00003ZM8.1578 119.549C8.05389 120.144 8.00003 120.755 8.00003 121.377H14C14 121.102 14.0238 120.837 14.0683 120.582L8.1578 119.549ZM8.11307 79.5172V120.066H14.1131V79.5172H8.11307ZM8 78.6985C8 79.2613 8.07831 79.8107 8.22645 80.3341L13.9997 78.7002C14 78.7013 14.0001 78.7021 14.0002 78.7023C14.0002 78.7025 14 78.7014 14 78.6985H8ZM8 72.0403V78.6985H14V72.0403H8ZM153.54 65.9447C148.294 65.9447 144.04 70.198 144.04 75.4447H150.04C150.04 73.5117 151.607 71.9447 153.54 71.9447V65.9447ZM192.5 65.9447H153.54V71.9447H192.5V65.9447ZM202 75.4447C202 70.198 197.747 65.9447 192.5 65.9447V71.9447C194.433 71.9447 196 73.5117 196 75.4447H202ZM202 75.6709V75.4447H196V75.6709H202ZM192.5 85.1709C197.747 85.1709 202 80.9176 202 75.6709H196C196 77.6039 194.433 79.1709 192.5 79.1709V85.1709ZM179.161 85.1709H192.5V79.1709H179.161V85.1709ZM176.161 82.1709V121.377H182.161V82.1709H176.161ZM176.161 121.377C176.161 123.111 174.755 124.518 173.02 124.518V130.518C178.068 130.518 182.161 126.425 182.161 121.377H176.161ZM173.02 124.518C171.286 124.518 169.879 123.111 169.879 121.377H163.879C163.879 126.425 167.972 130.518 173.02 130.518V124.518ZM169.879 121.377V82.1709H163.879V121.377H169.879ZM153.54 85.1709H166.879V79.1709H153.54V85.1709ZM144.04 75.6709C144.04 80.9176 148.294 85.1709 153.54 85.1709V79.1709C151.607 79.1709 150.04 77.6039 150.04 75.6709H144.04ZM144.04 75.4447V75.6709H150.04V75.4447H144.04Z" fill="black" mask="url(#path-25-outside-1_9_217)"/>
<path d="M105 102H107V103V103.5L105 103V102Z" fill="white"/>
<defs>
<filter id="filter0_i_9_217" x="8" y="65" width="194" height="70.9272" filterUnits="userSpaceOnUse" color-interpolation-filters="sRGB">
<feFlood flood-opacity="0" result="BackgroundImageFix"/>
<feBlend mode="normal" in="SourceGraphic" in2="BackgroundImageFix" result="shape"/>
<feColorMatrix in="SourceAlpha" type="matrix" values="0 0 0 0 0 0 0 0 0 0 0 0 0 0 0 0 0 0 127 0" result="hardAlpha"/>
<feOffset dy="4"/>
<feGaussianBlur stdDeviation="2"/>
<feComposite in2="hardAlpha" operator="arithmetic" k2="-1" k3="1"/>
<feColorMatrix type="matrix" values="0 0 0 0 0 0 0 0 0 0 0 0 0 0 0 0 0 0 0.25 0"/>
<feBlend mode="normal" in2="shape" result="effect1_innerShadow_9_217"/>
</filter>
</defs>
</svg>
