<svg width="254" height="234" viewBox="0 0 254 234" fill="none" xmlns="http://www.w3.org/2000/svg">
<circle cx="127" cy="117" r="117" fill="#303E4C"/>
<ellipse cx="126.5" cy="117.5" rx="82.5" ry="83.5" fill="white"/>
<circle cx="127" cy="117" r="77" fill="#303E4C"/>
<circle cx="127" cy="117" r="72" fill="#75E4D8"/>
<path d="M101.885 57.5C113.047 38.1666 140.953 38.1667 152.115 57.5L191.086 125C202.248 144.333 188.295 168.5 165.971 168.5H88.0288C65.7046 168.5 51.752 144.333 62.9141 125L101.885 57.5Z" fill="#303E4C"/>
<path d="M85.5 86L117.11 140.75H53.8901L85.5 86Z" fill="#303E4C"/>
<path d="M167.5 88L199.11 142.75H135.89L167.5 88Z" fill="#303E4C"/>
<path d="M167.5 84L199.11 138.75H135.89L167.5 84Z" fill="#303E4C"/>
<path d="M142.5 42L174.11 96.75H110.89L142.5 42Z" fill="#303E4C"/>
<path d="M144 42.5L173.11 93.75H109.89L144 42.5Z" fill="#303E4C"/>
<path d="M109.5 44L136 47.5L143.11 96.75H79.5L109.5 44Z" fill="#303E4C"/>
<path d="M129.5 88L161.11 142.75H97.8901L129.5 88Z" fill="#303E4C"/>
<rect x="72" y="151" width="110" height="18" fill="#303E4C"/>
<path d="M113 47H116L69.5 140H59L113 47Z" fill="white"/>
<path d="M138 47H140.5L193.5 142.6L189 152.5L138 47Z" fill="white"/>
<path d="M125.5 47H127.5L134.5 169.5H118.5L125.5 47Z" fill="white"/>
<rect x="115" y="57" width="23" height="5" fill="#303E4C"/>
<path d="M77 169H178L156 187.5L124 192L88 180L77 169Z" fill="#303E4C"/>
<rect x="115" y="122" width="23" height="7" fill="#303E4C"/>
<rect x="115" y="85" width="23" height="6" fill="#303E4C"/>
<path d="M207 77.5L204 72L214 71H224L235 72L244.5 75L247 76.5L249.5 78.5L250.5 79.5L252 81L253.5 83.5L254 84.5V85.5V90V91.5L253.5 93L253 94L252 96L248.5 102L243 108L237 113L229.5 118.5L221.5 123.5L213 128.5L206.5 132L199.5 135.5L193 138.5L187.5 141L182 143.5L176.5 146L166 150L160.5 152L154 154L151 155L147.5 156L143.5 157L143 153.5L142 149L146.5 148L151.5 146.5L157 144.5L163 142.5L168.5 140.5L174.5 138L179.5 136L185.5 133.5L192 130.5L199 127L205 124L211.5 120L218 115.5L224 111L230 106L233.5 102.5L238 95.5L239 93.5L240 91V90V86.5L239.5 85.5L238 83.5L235 81.5L229.5 79.5L226.5 78.5L223.5 78L207 77.5Z" fill="#75E4D8"/>
<path d="M210 84H215L219 85L222.5 87.5L224 89L225.5 91.5V93.5V96L225 98L224 100L223 101.5L221 104L218.5 106.5L211.5 112L206 115.5L201.5 118.5L196.5 121.5L192 124L188 126L184.5 127.5L179.5 130L175 132L168.5 134.5L158 138.5L151 141L142 144L141 136L150.5 133.5L163.5 128.5L171.5 125L177.5 122.5L184.5 119L189 116.5L195 113L199.5 110L204.5 107L209 103.5L212.5 100.5L216 96.5L216.5 93V90.5L215 88L210 84Z" fill="#75E4D8"/>
<path d="M12 127L17.5 122L23.5 117L29.5 113L36.5 109L36 116L28 122.5L22.5 127.5L17.5 133L15 137L14 141L13.5 145.5L14.5 149L16 151.5L18 154L20.5 156L23.5 157.5L27.5 158.5L31.5 159.5L36 160.5L42.5 161L58 160.5L64 160L73 159L86.5 157L92.5 156L101.5 154.5L107 153L110 152V159.5L107.5 160.5L101.5 162L91.5 164L86.5 165L80.5 166L71 167L64.5 168L60 168.5L54 169H41.5L34 168.5L27 168L24 167.5L20 166.5L17 166L14 165L11.5 164L9.5 163L7.5 161.5L5.5 160L4 158.5L2.5 156.5L1 154L0 151.5V147.5L0.5 145L1.5 141.5L3.5 138L6.5 133.5L9 130L12 127Z" fill="#75E4D8"/>
<path d="M30.5 127.5L36.5 123.5L33 132L32.5 135.5L33 139L35 142L38.5 144.5L41 145.5L44.5 146.5L48.5 147L59.5 147.5L68 147L78.5 145.5L89.5 143.5L101 141L110.5 139L110 146L104 147.5L96 149.5L87.5 151L78 152.5L65.5 154L55 155H46.5L41.5 154.5L39 154L36.5 153.5L34.5 153L32 152L30 151L27.5 149L25.5 147L24 144.5L23.5 143V140V138L24 136L25.5 133L27 131L30.5 127.5Z" fill="#75E4D8"/>
<path d="M96 187.5L155.5 187L158.5 198.5L120 204.5L93.5 194.5L96 187.5Z" fill="#303E4C"/>
<path d="M107 167L114.5 166L113 181.5L111.5 199L106.5 198L101.5 196.5L107 167Z" fill="white"/>
<path d="M137 165L142.5 163L149.5 197L145.5 198L141 199L137 165Z" fill="white"/>
<rect x="43" y="137.85" width="174" height="35.15" fill="#303E4C"/>
<path d="M43 139.592L49.418 145.34V171.204H43V139.592Z" fill="#D9D9D9"/>
<path d="M53.6967 150.369L59.4016 157.553V171.204H53.6967V150.369Z" fill="#D9D9D9"/>
<path d="M53.6967 146.058V138.155L79.3688 165.816V173L53.6967 146.058Z" fill="#D9D9D9"/>
<path d="M73.6639 139.592H79.3689V161.505L73.6639 155.757V139.592Z" fill="#D9D9D9"/>
<path d="M84.0041 139.592H89.709V150.369H84.0041V139.592Z" fill="#D9D9D9"/>
<path d="M53.6967 150.369L59.4016 157.553V171.204H53.6967V150.369Z" fill="#D9D9D9"/>
<rect x="87.9262" y="139.592" width="8.55738" height="6.46602" fill="#D9D9D9"/>
<path d="M107.18 150.01C107.18 155.763 102.551 160.427 96.8401 160.427C91.1294 160.427 89.3524 155.404 89.3524 149.65C89.3524 143.897 91.1294 139.592 96.8401 139.592C102.551 139.592 107.18 144.256 107.18 150.01Z" fill="#D9D9D9"/>
<ellipse cx="96.8402" cy="150.01" rx="4.63525" ry="3.95146" fill="#303E4C"/>
<rect x="89.3524" y="146.058" width="7.84426" height="7.90291" fill="#303E4C"/>
<path d="M81.8647 153.243L93.9877 153.961L94.7008 160.068L89.3525 159.709L84.0041 158.99L81.8647 153.243Z" fill="#D9D9D9"/>
<path d="M84.0041 158.99H90.0656V171.204H84.0041V158.99Z" fill="#D9D9D9"/>
<path d="M93.6311 159.35L100.762 158.99L101.475 159.35V159.709L110.389 171.204H102.902L93.6311 159.35Z" fill="#D9D9D9"/>
<ellipse cx="125.721" cy="155.398" rx="15.6885" ry="15.8058" fill="#D9D9D9"/>
<ellipse cx="125.721" cy="155.398" rx="9.98361" ry="10.0583" fill="#303E4C"/>
<ellipse cx="157.455" cy="161.146" rx="12.4795" ry="10.7767" fill="#D9D9D9"/>
<path d="M144.975 139.592H169.934V161.146H144.975V139.592Z" fill="#D9D9D9"/>
<path d="M150.439 138.434H164.471V159.709H150.439V138.434Z" fill="#303E4C"/>
<path d="M164.23 159.709C164.23 163.28 160.912 166.175 157.272 166.175C153.631 166.175 150.68 163.28 150.68 159.709C150.68 156.138 153.631 153.243 157.272 153.243C160.912 153.243 164.23 156.138 164.23 159.709Z" fill="#303E4C"/>
<rect x="172.074" y="139.592" width="22.1066" height="6.46602" fill="#D9D9D9"/>
<rect x="179.918" y="144.621" width="6.41803" height="27.301" fill="#D9D9D9"/>
<rect x="197.033" y="139.592" width="5.70492" height="10.7767" fill="#D9D9D9"/>
<path d="M192.398 152.524H214.861V158.272L196.32 157.913L192.398 152.524Z" fill="#D9D9D9"/>
<rect x="202.738" y="139.592" width="14.2623" height="6.46602" fill="#D9D9D9"/>
<path d="M196.676 160.786H202.381V170.845H196.676V160.786Z" fill="#D9D9D9"/>
<path d="M202.025 164.738H216.643V170.845H202.025V164.738Z" fill="#D9D9D9"/>
</svg>
