<svg width="200" height="200" viewBox="0 0 200 200" fill="none" xmlns="http://www.w3.org/2000/svg">
<rect width="200" height="200" rx="36" fill="#7126F3"/>
<path d="M53.8717 62.3317V73.64H47.8917V62.3317H53.8717ZM53.1433 124.93V135.242H47.1633V124.93H53.1433ZM57.36 112.357C57.36 110.9 57.0917 109.661 56.555 108.638C56.0439 107.616 55.2006 106.709 54.025 105.917C52.875 105.124 51.3161 104.358 49.3483 103.617C46.0261 102.339 43.1 100.984 40.57 99.5533C38.0656 98.0967 36.1106 96.295 34.705 94.1483C33.2994 91.9761 32.5967 89.2289 32.5967 85.9067C32.5967 82.7378 33.3506 79.9906 34.8583 77.665C36.3661 75.3394 38.4489 73.5505 41.1067 72.2983C43.79 71.0205 46.9078 70.3817 50.46 70.3817C53.1689 70.3817 55.6222 70.7905 57.82 71.6083C60.0178 72.4005 61.9089 73.5761 63.4933 75.135C65.0778 76.6683 66.2917 78.5467 67.135 80.77C67.9783 82.9933 68.4 85.5361 68.4 88.3983H57.3983C57.3983 86.865 57.2322 85.5106 56.9 84.335C56.5678 83.1594 56.0822 82.1756 55.4433 81.3833C54.83 80.5911 54.0889 80.0033 53.22 79.62C52.3511 79.2111 51.3928 79.0067 50.345 79.0067C48.7861 79.0067 47.5083 79.3133 46.5117 79.9267C45.515 80.54 44.7867 81.3706 44.3267 82.4183C43.8922 83.4406 43.675 84.6161 43.675 85.945C43.675 87.2483 43.905 88.3856 44.365 89.3567C44.8506 90.3278 45.6811 91.2222 46.8567 92.04C48.0322 92.8322 49.6422 93.65 51.6867 94.4933C55.0089 95.7711 57.9222 97.1511 60.4267 98.6333C62.9311 100.116 64.8861 101.93 66.2917 104.077C67.6972 106.223 68.4 108.958 68.4 112.28C68.4 115.577 67.6333 118.388 66.1 120.713C64.5667 123.013 62.42 124.777 59.66 126.003C56.9 127.204 53.7056 127.805 50.0767 127.805C47.7256 127.805 45.3872 127.498 43.0617 126.885C40.7361 126.246 38.6278 125.224 36.7367 123.818C34.8456 122.413 33.3378 120.547 32.2133 118.222C31.0889 115.871 30.5267 112.983 30.5267 109.558H41.5667C41.5667 111.424 41.8094 112.983 42.295 114.235C42.7806 115.462 43.4194 116.446 44.2117 117.187C45.0294 117.902 45.9494 118.413 46.9717 118.72C47.9939 119.027 49.0289 119.18 50.0767 119.18C51.7122 119.18 53.0539 118.886 54.1017 118.298C55.175 117.711 55.98 116.906 56.5167 115.883C57.0789 114.836 57.36 113.66 57.36 112.357Z" fill="white"/>
<path d="M91.4575 89.8925V95.7575H73.345V89.8925H91.4575ZM77.83 82.2162H86.11V111.627C86.11 112.528 86.225 113.218 86.455 113.697C86.7042 114.177 87.0683 114.512 87.5475 114.704C88.0267 114.876 88.6304 114.962 89.3588 114.962C89.8763 114.962 90.3363 114.943 90.7388 114.905C91.1604 114.847 91.515 114.79 91.8025 114.732L91.8313 120.827C91.1221 121.058 90.3554 121.24 89.5313 121.374C88.7071 121.508 87.7967 121.575 86.8 121.575C84.9792 121.575 83.3883 121.278 82.0275 120.684C80.6858 120.07 79.6508 119.093 78.9225 117.751C78.1942 116.41 77.83 114.646 77.83 112.461V82.2162ZM112.963 113.985V100.127C112.963 99.1308 112.8 98.2779 112.474 97.5687C112.148 96.8404 111.64 96.275 110.95 95.8725C110.279 95.47 109.407 95.2687 108.334 95.2687C107.414 95.2687 106.618 95.4317 105.948 95.7575C105.277 96.0642 104.759 96.5146 104.395 97.1087C104.031 97.6837 103.849 98.3642 103.849 99.15H95.5688C95.5688 97.8275 95.8754 96.5721 96.4888 95.3837C97.1021 94.1954 97.9933 93.1508 99.1625 92.25C100.332 91.33 101.721 90.6112 103.331 90.0937C104.96 89.5762 106.781 89.3175 108.794 89.3175C111.209 89.3175 113.355 89.72 115.234 90.525C117.112 91.33 118.588 92.5375 119.661 94.1475C120.754 95.7575 121.3 97.77 121.3 100.185V113.496C121.3 115.202 121.405 116.601 121.616 117.694C121.827 118.767 122.134 119.706 122.536 120.511V121H114.17C113.768 120.157 113.461 119.102 113.25 117.837C113.058 116.553 112.963 115.269 112.963 113.985ZM114.055 102.054L114.113 106.74H109.484C108.391 106.74 107.443 106.865 106.638 107.114C105.833 107.363 105.171 107.717 104.654 108.177C104.136 108.618 103.753 109.136 103.504 109.73C103.274 110.324 103.159 110.976 103.159 111.685C103.159 112.394 103.322 113.036 103.648 113.611C103.973 114.167 104.443 114.608 105.056 114.934C105.67 115.24 106.388 115.394 107.213 115.394C108.458 115.394 109.541 115.145 110.461 114.646C111.381 114.148 112.09 113.535 112.589 112.806C113.106 112.078 113.375 111.388 113.394 110.736L115.579 114.244C115.272 115.03 114.85 115.844 114.314 116.687C113.796 117.531 113.135 118.326 112.33 119.074C111.525 119.802 110.557 120.406 109.426 120.885C108.295 121.345 106.954 121.575 105.401 121.575C103.427 121.575 101.635 121.182 100.025 120.396C98.4342 119.591 97.1692 118.489 96.23 117.09C95.31 115.672 94.85 114.062 94.85 112.26C94.85 110.631 95.1567 109.184 95.77 107.919C96.3833 106.654 97.2842 105.59 98.4725 104.727C99.68 103.846 101.185 103.185 102.986 102.744C104.788 102.284 106.877 102.054 109.254 102.054H114.055ZM136.423 76.84V121H128.114V76.84H136.423ZM151.545 76.8112V121H143.265V76.8112H151.545ZM171.153 89.8925L157.64 105.302L150.395 112.634L147.376 106.654L153.126 99.3512L161.205 89.8925H171.153ZM162.556 121L153.356 106.625L159.078 101.622L172.101 121H162.556Z" fill="white"/>
</svg>
